<?xml version="1.0" standalone="no"?><!DOCTYPE svg PUBLIC "-//W3C//DTD SVG 1.1//EN" "http://www.w3.org/Graphics/SVG/1.1/DTD/svg11.dtd"><svg class="icon" width="200px" height="200.00px" viewBox="0 0 1024 1024" version="1.1" xmlns="http://www.w3.org/2000/svg"><path fill="#A9C6FF" d="M738.6 130.88h-452a101.4 101.4 0 0 0-101.4 101.4v556.44a101.4 101.4 0 0 0 101.4 101.4h322.46C736.6 890.12 840 786.73 840 659.18v-426.9a101.4 101.4 0 0 0-101.4-101.4zM513 655.33a35.35 35.35 0 0 1-35.35 35.35H328.88a35.35 35.35 0 0 1-35.35-35.35A35.35 35.35 0 0 1 328.88 620h148.77A35.35 35.35 0 0 1 513 655.33z m219-146a35.35 35.35 0 0 1-35.35 35.35H328.88a35.35 35.35 0 0 1-35.35-35.35A35.35 35.35 0 0 1 328.88 474h367.77A35.35 35.35 0 0 1 732 509.33z m0-140a35.35 35.35 0 0 1-35.35 35.35H328.88a35.35 35.35 0 0 1-35.35-35.35A35.35 35.35 0 0 1 328.88 334h367.77A35.35 35.35 0 0 1 732 369.33z"  /></svg>